<svg width="150px" height="150px" viewBox="0 0 150 150" version="1.1" xmlns="http://www.w3.org/2000/svg" xmlns:xlink="http://www.w3.org/1999/xlink">
    <g><path d="M111.354015,114.606061 L111.354015,61 L121.691606,61 L121.691606,114.606061 L111.354015,114.606061 Z M69,110.623377 L79.5383212,110.623377 L79.5383212,130.536797 L124,130.536797 L124,139 L69,139 L69,110.623377 Z M92.7415144,21.2551351 L92.7415144,11 L103.0953,11 L103.0953,60.0637838 L92.7415144,60.0637838 L92.7415144,49.0043243 L77.0600522,49.0043243 L77.0600522,40.8605405 L92.7415144,40.8605405 L92.7415144,29.4994595 L77.2610966,29.4994595 L77.2610966,21.2551351 L92.7415144,21.2551351 Z M50.7232376,12.5081081 C63.7911227,12.5081081 74.345953,22.6627027 74.345953,35.1297297 C74.345953,47.5967568 63.9921671,57.8518919 50.7232376,57.7513514 C37.6553525,57.7513514 27,47.5967568 27,35.1297297 C27,22.6627027 37.6553525,12.5081081 50.7232376,12.5081081 Z M50.7232376,21.5567568 C43.3851175,21.5567568 37.5548303,27.3881081 37.5548303,35.1297297 C37.5548303,42.8713514 43.3851175,48.7027027 50.7232376,48.7027027 C57.9608355,48.7027027 63.8916449,42.8713514 63.8916449,35.1297297 C63.8916449,27.3881081 57.9608355,21.5567568 50.7232376,21.5567568 Z M56.654047,79.8702703 L92.3161,79.8702703 L92.3161,72.2291892 L56.654047,72.2291892 L56.654047,64.387027 L102.256134,64.387027 L102.256134,87.5113514 L66.506888,87.5113514 L66.506888,95.8562162 L104,95.8562162 L104,104 L56.654047,104 L56.654047,79.8702703 Z" fill="#000000"></path></g>
</svg>
