<svg version="1.1" viewBox="0 0 64 64" xmlns="http://www.w3.org/2000/svg">
<g transform="translate(11 4)" fill="#F1F1F1">
<path d="m36.524 45.328v-23.453h4.4761v23.453h-4.4761zm-18.339-1.7424h4.563v8.7121h19.251v3.7027h-23.814v-12.415zm10.28-39.099v-4.4866h4.4831v21.465h-4.4831v-4.8385h-6.7899v-3.5629h6.7899v-4.9705h-6.7029v-3.6069h6.7029zm-18.193-3.8268c5.6583 0 10.228 4.4426 10.228 9.897 0 5.4543-4.4831 9.9409-10.228 9.897-5.6583 0-10.272-4.4426-10.272-9.897 0-5.4543 4.6137-9.897 10.272-9.897zm0 3.9588c-3.1773 0-5.7018 2.5512-5.7018 5.9382 0 3.387 2.5245 5.9382 5.7018 5.9382 3.1338 0 5.7018-2.5512 5.7018-5.9382 0-3.387-2.568-5.9382-5.7018-5.9382zm2.568 25.512h15.441v-3.343h-15.441v-3.4309h19.745v10.117h-15.479v3.6509h16.234v3.5629h-20.5v-10.557z"/>
</g>
</svg>
